<?xml version="1.0" encoding="UTF-8" standalone="no"?>
<!-- Created with Inkscape (http://www.inkscape.org/) -->

<svg
   xmlns:dc="http://purl.org/dc/elements/1.1/"
   xmlns:cc="http://creativecommons.org/ns#"
   xmlns:rdf="http://www.w3.org/1999/02/22-rdf-syntax-ns#"
   xmlns:svg="http://www.w3.org/2000/svg"
   xmlns="http://www.w3.org/2000/svg"
   xmlns:sodipodi="http://sodipodi.sourceforge.net/DTD/sodipodi-0.dtd"
   xmlns:inkscape="http://www.inkscape.org/namespaces/inkscape"
   width="389.76376"
   height="144.22958"
   id="svg3581"
   version="1.1"
   inkscape:version="0.48.5 r10040"
   sodipodi:docname="dinisptentrega.svg"
   inkscape:export-filename="H:\IEFP_CURSO\ink\final\dinispt Bitmap Cores Small.png"
   inkscape:export-xdpi="90"
   inkscape:export-ydpi="90">
  <defs
     id="defs3583" />
  <sodipodi:namedview
     id="base"
     pagecolor="#ffffff"
     bordercolor="#666666"
     borderopacity="1.0"
     inkscape:pageopacity="0.0"
     inkscape:pageshadow="2"
     inkscape:zoom="1"
     inkscape:cx="312.20905"
     inkscape:cy="74.584322"
     inkscape:document-units="px"
     inkscape:current-layer="layer1"
     showgrid="false"
     inkscape:window-width="1920"
     inkscape:window-height="1017"
     inkscape:window-x="-8"
     inkscape:window-y="-8"
     inkscape:window-maximized="1"
     units="cm"
     fit-margin-top="0.5"
     fit-margin-left="0.5"
     fit-margin-right="0.5"
     fit-margin-bottom="0" />
  <metadata
     id="metadata3586">
    <rdf:RDF>
      <cc:Work
         rdf:about="">
        <dc:format>image/svg+xml</dc:format>
        <dc:type
           rdf:resource="http://purl.org/dc/dcmitype/StillImage" />
        <dc:title></dc:title>
      </cc:Work>
    </rdf:RDF>
  </metadata>
  <g
     inkscape:label="Camada 1"
     inkscape:groupmode="layer"
     id="layer1"
     transform="translate(-306.73787,-589.44283)">
    <g
       id="g3005"
       transform="matrix(0.85848634,0,0,0.85848634,45.914729,103.82467)">
      <g
         transform="translate(46.505872,-203.69586)"
         id="g3277"
         style="font-size:133.78497314px;font-style:normal;font-variant:normal;font-weight:normal;font-stretch:normal;line-height:125%;letter-spacing:-6.45512486px;word-spacing:0px;fill:#000000;fill-opacity:1;stroke:none;font-family:Arial;-inkscape-font-specification:Arial">
        <path
           inkscape:connector-curvature="0"
           id="path3279"
           style="font-weight:bold;-inkscape-font-specification:Arial Bold"
           d="m 345.69023,885.7667 -17.0497,0 0,-10.19065 c -2.8308,3.96304 -6.1732,6.91353 -10.0274,8.8515 -3.8542,1.93796 -7.741,2.90694 -11.6604,2.90694 -7.9697,0 -14.7961,-3.21179 -20.4793,-9.63539 -5.6833,-6.42358 -8.5249,-15.38394 -8.5249,-26.88111 0,-11.7584 2.7654,-20.69698 8.2963,-26.81579 5.5308,-6.11867 12.5205,-9.17804 20.9692,-9.17812 7.7518,8e-5 14.4585,3.22276 20.12,9.66806 l 0,-34.49144 18.3562,0 z m -48.9935,-36.18988 c 0,7.4035 1.0234,12.76012 3.0703,16.06988 2.9613,4.79049 7.0986,7.18573 12.4117,7.18571 4.2242,2e-5 7.8171,-1.79641 10.7785,-5.38928 2.9614,-3.59284 4.4421,-8.96035 4.4421,-16.10254 0,-7.96957 -1.4372,-13.70725 -4.3114,-17.21306 -2.8743,-3.5057 -6.5543,-5.25858 -11.0399,-5.25864 -4.355,6e-5 -8.0023,1.73116 -10.9419,5.19332 -2.9396,3.46225 -4.4094,8.63379 -4.4094,15.51461 z" />
        <path
           inkscape:connector-curvature="0"
           id="path3281"
           style="font-weight:bold;-inkscape-font-specification:Arial Bold"
           d="m 357.39543,806.98512 0,-16.98442 18.3562,0 0,16.98442 z m 0,78.78158 0,-69.37482 18.3562,0 0,69.37482 z" />
        <path
           inkscape:connector-curvature="0"
           id="path3283"
           style="font-weight:bold;-inkscape-font-specification:Arial Bold"
           d="m 451.14833,885.7667 -18.3562,0 0,-35.40598 c -10e-5,-7.49052 -0.392,-12.33543 -1.1759,-14.53475 -0.7839,-2.19921 -2.0577,-3.90854 -3.8215,-5.12798 -1.7638,-1.21934 -3.8868,-1.82904 -6.3691,-1.8291 -3.1792,6e-5 -6.0317,0.87106 -8.5575,2.61299 -2.526,1.74205 -4.2571,4.05018 -5.1934,6.92442 -0.9363,2.87433 -1.4045,8.1874 -1.4044,15.93922 l 0,31.42118 -18.3563,0 0,-69.37482 17.0498,0 0,10.19065 c 6.0534,-7.8389 13.6746,-11.75837 22.8636,-11.75845 4.0501,8e-5 7.7518,0.72953 11.1052,2.18838 3.3533,1.45899 5.89,3.32074 7.6103,5.58526 1.7202,2.26465 2.9178,4.83409 3.5929,7.70832 0.6749,2.87434 1.0125,6.98979 1.0125,12.34636 z" />
        <path
           inkscape:connector-curvature="0"
           id="path3285"
           style="font-weight:bold;-inkscape-font-specification:Arial Bold"
           d="m 463.37613,806.98512 0,-16.98442 18.3562,0 0,16.98442 z m 0,78.78158 0,-69.37482 18.3562,0 0,69.37482 z" />
        <path
           inkscape:connector-curvature="0"
           id="path3287"
           style="font-weight:bold;-inkscape-font-specification:Arial Bold"
           d="m 487.55823,865.97332 18.4216,-2.80896 c 0.7839,3.5711 2.3734,6.28207 4.7687,8.13292 2.3952,1.85088 5.7485,2.77631 10.06,2.7763 4.7469,10e-6 8.318,-0.87098 10.7132,-2.61299 1.6113,-1.21937 2.417,-2.85249 2.417,-4.89935 0,-1.39357 -0.4355,-2.54764 -1.3064,-3.46221 -0.9146,-0.87097 -2.9615,-1.67664 -6.1406,-2.41701 -14.8069,-3.26621 -24.1919,-6.24936 -28.1549,-8.94948 -5.4873,-3.74525 -8.2309,-8.94944 -8.2309,-15.6126 0,-6.00982 2.3734,-11.06159 7.1204,-15.15533 4.7469,-4.09362 12.1068,-6.14045 22.0797,-6.14053 9.4938,8e-5 16.5489,1.54609 21.1652,4.63806 4.6162,3.0921 7.7954,7.66482 9.5374,13.71818 l -17.311,3.20091 c -0.7404,-2.70003 -2.1449,-4.76864 -4.2135,-6.20584 -2.0686,-1.43709 -5.0191,-2.15566 -8.8515,-2.15572 -4.834,6e-5 -8.2962,0.67508 -10.3866,2.02507 -1.3936,0.95815 -2.0904,2.19932 -2.0904,3.72351 0,1.30654 0.6097,2.41706 1.8291,3.33156 1.6549,1.21944 7.3708,2.93965 17.1477,5.16065 9.7769,2.22108 16.6033,4.94294 20.4793,8.16558 3.8324,3.26627 5.7485,7.81722 5.7486,13.65286 -10e-5,6.35829 -2.6566,11.82378 -7.9696,16.3965 -5.3131,4.57273 -13.1739,6.85909 -23.5822,6.85909 -9.4503,0 -16.93,-1.91619 -22.439,-5.74857 -5.5091,-3.83237 -9.1128,-9.03657 -10.8113,-15.6126 z" />
        <path
           inkscape:connector-curvature="0"
           id="path3289"
           style="fill:#0066ff"
           d="m 581.51783,816.39188 17.1151,0 0,10.19065 c 2.221,-3.48392 5.2259,-6.31466 9.0148,-8.49221 3.7888,-2.17742 7.9913,-3.26616 12.6076,-3.26624 8.0567,8e-5 14.894,3.15743 20.512,9.47209 5.6178,6.31477 8.4268,15.11182 8.4269,26.39117 -10e-5,11.58427 -2.8308,20.58818 -8.4922,27.01176 -5.6616,6.4236 -12.5207,9.63539 -20.5773,9.63539 -3.8324,0 -7.3055,-0.76212 -10.4193,-2.28636 -3.1138,-1.52424 -6.391,-4.13723 -9.8314,-7.83896 l 0,34.94871 -18.3562,0 z m 18.1603,33.51157 c -10e-5,7.79544 1.5459,13.55489 4.638,17.27838 3.092,3.72352 6.8591,5.58527 11.3012,5.58526 4.2678,10e-6 7.8171,-1.70932 10.6479,-5.12799 2.8307,-3.41864 4.2461,-9.02567 4.2461,-16.82111 0,-7.27277 -1.459,-12.67294 -4.3767,-16.20052 -2.9179,-3.52748 -6.5326,-5.29125 -10.8439,-5.2913 -4.4857,5e-5 -8.2092,1.73116 -11.1706,5.19331 -2.9614,3.46226 -4.4421,8.59024 -4.442,15.38397 z" />
        <path
           inkscape:connector-curvature="0"
           id="path3291"
           style="fill:#0066ff"
           d="m 689.18493,816.39188 0,14.63273 -12.5423,0 0,27.95897 c -1e-4,5.66149 0.1197,8.96039 0.3593,9.89669 0.2394,0.93634 0.7838,1.70934 1.6331,2.31903 0.8492,0.60971 1.8835,0.91456 3.1029,0.91454 1.6984,2e-5 4.159,-0.58791 7.3817,-1.76377 l 1.5678,14.24079 c -4.2679,1.82909 -9.102,2.74363 -14.5021,2.74363 -3.3098,0 -6.293,-0.55526 -8.9495,-1.66578 -2.6565,-1.11051 -4.6054,-2.54766 -5.8466,-4.31142 -1.2411,-1.76377 -2.1012,-4.14811 -2.5803,-7.15306 -0.3919,-2.13392 -0.5879,-6.44535 -0.5879,-12.93429 l 0,-30.24533 -8.4269,0 0,-14.63273 8.4269,0 0,-13.78351 18.4216,-10.71325 0,24.49676 z" />
      </g>
      <g
         transform="translate(-1202.4495,733.41489)"
         id="g3293"
         style="font-size:46.2718811px;font-style:normal;font-variant:normal;font-weight:normal;font-stretch:normal;line-height:125%;letter-spacing:-4.46523714px;word-spacing:0px;fill:#4d4d4d;fill-opacity:1;stroke:none;font-family:Arial;-inkscape-font-specification:Arial">
        <path
           inkscape:connector-curvature="0"
           id="path3295"
           style="letter-spacing:-3.23903203px;fill:#4d4d4d"
           d="m 1557.4625,-12.440136 c -1.5063,1.280311 -2.9561,2.184058 -4.3493,2.7112435 -1.3933,0.5271858 -2.8883,0.7907786 -4.4849,0.7907792 -2.6359,-6e-7 -4.6618,-0.6439202 -6.0777,-1.9317607 -1.4159,-1.287838 -2.1238,-2.93341 -2.1238,-4.936722 0,-1.174864 0.2674,-2.248063 0.8021,-3.219601 0.5347,-0.971518 1.2351,-1.751 2.1012,-2.338447 0.8661,-0.587423 1.8414,-1.031766 2.9259,-1.333028 0.7983,-0.210861 2.0033,-0.414204 3.615,-0.610029 3.2836,-0.39161 5.7011,-0.858546 7.2526,-1.400809 0.015,-0.557296 0.023,-0.911263 0.023,-1.061904 0,-1.656853 -0.3841,-2.824192 -1.1522,-3.502022 -1.0394,-0.91879 -2.5833,-1.378194 -4.6317,-1.378215 -1.913,2.1e-5 -3.3251,0.33516 -4.2364,1.005419 -0.9112,0.670299 -1.5853,1.856467 -2.0221,3.558506 l -3.9765,-0.542248 c 0.3615,-1.702039 0.9565,-3.076488 1.7849,-4.123349 0.8285,-1.046819 2.0259,-1.85266 3.5924,-2.417525 1.5665,-0.564818 3.3815,-0.847239 5.4451,-0.847263 2.0485,2.4e-5 3.7129,0.241023 4.9932,0.722998 1.2803,0.482022 2.2217,1.088285 2.8242,1.818792 0.6025,0.730551 1.0242,1.653125 1.2653,2.767727 0.1355,0.692892 0.2033,1.943075 0.2033,3.750553 l 0,5.422486 c 0,3.780684 0.087,6.171848 0.2598,7.173497 0.1732,1.001656 0.5159,1.961887 1.028,2.8806961 l -4.2476,0 c -0.4217,-0.8434971 -0.6929,-1.8300871 -0.8133,-2.9597741 z m -0.3389,-9.082664 c -1.4762,0.60251 -3.6904,1.114633 -6.6426,1.536371 -1.6719,0.24101 -2.8543,0.512134 -3.5472,0.813373 -0.6929,0.301259 -1.2276,0.741835 -1.6042,1.321731 -0.3765,0.579913 -0.5648,1.223832 -0.5648,1.931761 0,1.084502 0.4105,1.988249 1.2314,2.711243 0.8209,0.723001 2.0221,1.0845 3.6037,1.084497 1.5664,3e-6 2.9597,-0.342668 4.1798,-1.028013 1.22,-0.685338 2.1162,-1.622975 2.6886,-2.812915 0.4368,-0.918802 0.6552,-2.274422 0.6553,-4.066864 z" />
        <path
           inkscape:connector-curvature="0"
           id="path3297"
           style="letter-spacing:-3.23903203px;fill:#4d4d4d"
           d="m 1563.5772,-7.492117 3.9539,0.5874359 c 0.1657,1.2200556 0.6251,2.1087399 1.3782,2.6660557 1.0092,0.7531171 2.3874,1.1296782 4.1347,1.1296846 1.8828,-6.4e-6 3.3363,-0.3765675 4.3606,-1.1296846 1.0242,-0.7531276 1.7171,-1.8074988 2.0786,-3.1631169 0.2108,-0.8284366 0.3087,-2.5681491 0.2937,-5.2191427 -1.7774,2.093683 -3.9916,3.1405231 -6.6426,3.1405231 -3.2986,0 -5.8517,-1.1899331 -7.6592,-3.5698031 -1.8075,-2.379863 -2.7113,-5.234197 -2.7113,-8.56301 0,-2.289479 0.4143,-4.401987 1.2427,-6.33753 0.8284,-1.935506 2.0297,-3.430454 3.6037,-4.484848 1.574,-1.054348 3.4229,-1.581534 5.5467,-1.581558 2.8318,2.4e-5 5.1664,1.14477 7.0041,3.434241 l 0,-2.891993 3.7505,0 0,20.741009 c 0,3.7354903 -0.3803,6.3827153 -1.1409,7.9416831 -0.7607,1.5589585 -1.9657,2.7903135 -3.615,3.6940687 -1.6494,0.90373836 -3.6791,1.35561175 -6.089,1.35562149 -2.8619,-9.74e-6 -5.174,-0.64392931 -6.9363,-1.93176069 -1.7623,-1.2878469 -2.6133,-3.2271369 -2.5531,-5.8178756 z m 3.3665,-14.414776 c 0,3.148064 0.6251,5.445087 1.8753,6.891077 1.2501,1.446 2.8166,2.168997 4.6994,2.168994 1.8678,3e-6 3.4343,-0.719228 4.6995,-2.157698 1.2653,-1.438458 1.8979,-3.694059 1.8979,-6.76681 0,-2.937165 -0.6515,-5.151345 -1.9544,-6.642546 -1.3029,-1.491163 -2.8731,-2.236754 -4.7107,-2.236775 -1.8075,2.1e-5 -3.3439,0.734315 -4.6092,2.202885 -1.2652,1.468607 -1.8978,3.648896 -1.8978,6.540873 z" />
        <path
           inkscape:connector-curvature="0"
           id="path3299"
           style="letter-spacing:-3.23903203px;fill:#4d4d4d"
           d="m 1603.2662,-17.207405 4.2024,0.519655 c -0.6627,2.455186 -1.8903,4.360586 -3.6827,5.716204 -1.7925,1.355622 -4.082,2.0334321 -6.8685,2.0334327 -3.5096,-6e-7 -6.2924,-1.0807307 -8.3484,-3.2421947 -2.056,-2.161458 -3.084,-5.192776 -3.084,-9.093961 0,-4.036724 1.0393,-7.169713 3.1179,-9.398976 2.0786,-2.229221 4.7748,-3.343842 8.0885,-3.343866 3.2083,2.4e-5 5.8292,1.092051 7.8626,3.276085 2.0334,2.184076 3.0502,5.256815 3.0502,9.218226 0,0.241011 -0.01,0.60251 -0.023,1.084497 l -17.8942,0 c 0.1506,2.63594 0.8962,4.654307 2.2368,6.05511 1.3405,1.400812 3.0124,2.101216 5.0158,2.101213 1.4911,3e-6 2.7639,-0.391621 3.8183,-1.174872 1.0544,-0.783243 1.8903,-2.033426 2.5079,-3.750553 z m -13.3529,-6.574764 13.3981,0 c -0.1808,-2.018353 -0.6929,-3.532129 -1.5364,-4.541332 -1.2954,-1.566476 -2.9748,-2.349723 -5.0384,-2.349744 -1.8677,2.1e-5 -3.438,0.625113 -4.7108,1.875276 -1.2727,1.250203 -1.9769,2.922134 -2.1125,5.0158 z m 6.7104,-16.515989 -2.5531,3.840928 -4.6543,0 4.8802,-6.326234 4.338,0 5.0836,6.326234 -4.6091,0 z" />
        <path
           inkscape:connector-curvature="0"
           id="path3301"
           style="letter-spacing:-3.23903203px;fill:#4d4d4d"
           d="m 1609.3584,-9.4803619 0,-23.9945011 3.6601,0 0,3.411648 c 1.7623,-2.635908 4.3079,-3.953872 7.6367,-3.953896 1.446,2.4e-5 2.7752,0.259851 3.9878,0.779482 1.2125,0.519678 2.12,1.201254 2.7225,2.044729 0.6025,0.843519 1.0243,1.845171 1.2653,3.004961 0.1506,0.753141 0.2259,2.071105 0.2259,3.953896 l 0,14.7536811 -4.0668,0 0,-14.5955251 c -10e-5,-1.656854 -0.1582,-2.895741 -0.4745,-3.716662 -0.3163,-0.820885 -0.8774,-1.476102 -1.6832,-1.965651 -0.8059,-0.48951 -1.7511,-0.734274 -2.8356,-0.734295 -1.7321,2.1e-5 -3.2271,0.5498 -4.4848,1.649339 -1.2577,1.099578 -1.8866,3.185727 -1.8866,6.258453 l 0,13.1043411 z" />
        <path
           inkscape:connector-curvature="0"
           id="path3303"
           style="letter-spacing:-3.23903203px;fill:#4d4d4d"
           d="m 1647.5336,-18.269308 3.999,0.519655 c -0.4368,2.756436 -1.5552,4.914131 -3.3551,6.473093 -1.8,1.5589645 -4.0104,2.3384461 -6.6313,2.3384467 -3.2836,-6e-7 -5.9233,-1.0731997 -7.9191,-3.2196007 -1.9957,-2.146396 -2.9936,-5.222901 -2.9936,-9.229524 0,-2.590728 0.4293,-4.857627 1.2878,-6.800701 0.8586,-1.943037 2.1652,-3.400328 3.92,-4.371879 1.7548,-0.971505 3.664,-1.457269 5.7275,-1.457293 2.6058,2.4e-5 4.7372,0.659006 6.394,1.976948 1.6569,1.317986 2.7188,3.189495 3.1858,5.614532 l -3.9539,0.61003 c -0.3766,-1.611666 -1.0431,-2.824193 -1.9996,-3.637585 -0.9565,-0.813352 -2.1125,-1.220038 -3.4681,-1.220059 -2.0485,2.1e-5 -3.7129,0.734315 -4.9932,2.202885 -1.2803,1.468607 -1.9205,3.79199 -1.9205,6.970154 0,3.223375 0.6176,5.565586 1.8527,7.026638 1.2351,1.461062 2.8468,2.191591 4.835,2.191588 1.5967,3e-6 2.9297,-0.489526 3.9991,-1.46859 1.0695,-0.979054 1.7473,-2.485299 2.0335,-4.518738 z" />
        <path
           inkscape:connector-curvature="0"
           id="path3305"
           style="letter-spacing:-3.23903203px;fill:#4d4d4d"
           d="m 1651.7956,-37.92582 0,-4.676894 4.0669,0 0,4.676894 z m 0,28.4454581 0,-23.9945011 4.0669,0 0,23.9945011 z" />
        <path
           inkscape:connector-curvature="0"
           id="path3307"
           style="letter-spacing:-3.23903203px;fill:#4d4d4d"
           d="m 1674.4942,-12.440136 c -1.5063,1.280311 -2.9561,2.184058 -4.3493,2.7112435 -1.3933,0.5271858 -2.8883,0.7907786 -4.4849,0.7907792 -2.6359,-6e-7 -4.6618,-0.6439202 -6.0777,-1.9317607 -1.4158,-1.287838 -2.1238,-2.93341 -2.1238,-4.936722 0,-1.174864 0.2674,-2.248063 0.8021,-3.219601 0.5347,-0.971518 1.2351,-1.751 2.1012,-2.338447 0.8661,-0.587423 1.8414,-1.031766 2.9259,-1.333028 0.7983,-0.210861 2.0033,-0.414204 3.615,-0.610029 3.2836,-0.39161 5.7011,-0.858546 7.2526,-1.400809 0.015,-0.557296 0.023,-0.911263 0.023,-1.061904 -10e-5,-1.656853 -0.3842,-2.824192 -1.1523,-3.502022 -1.0393,-0.91879 -2.5832,-1.378194 -4.6317,-1.378215 -1.913,2.1e-5 -3.3251,0.33516 -4.2363,1.005419 -0.9113,0.670299 -1.5854,1.856467 -2.0222,3.558506 l -3.9765,-0.542248 c 0.3615,-1.702039 0.9565,-3.076488 1.7849,-4.123349 0.8285,-1.046819 2.0259,-1.85266 3.5924,-2.417525 1.5665,-0.564818 3.3815,-0.847239 5.4451,-0.847263 2.0485,2.4e-5 3.7129,0.241023 4.9932,0.722998 1.2803,0.482022 2.2217,1.088285 2.8242,1.818792 0.6025,0.730551 1.0242,1.653125 1.2653,2.767727 0.1355,0.692892 0.2033,1.943075 0.2033,3.750553 l 0,5.422486 c 0,3.780684 0.087,6.171848 0.2598,7.173497 0.1732,1.001656 0.5159,1.961887 1.0281,2.8806961 l -4.2477,0 c -0.4217,-0.8434971 -0.6929,-1.8300871 -0.8133,-2.9597741 z m -0.3389,-9.082664 c -1.4762,0.60251 -3.6904,1.114633 -6.6426,1.536371 -1.6719,0.24101 -2.8543,0.512134 -3.5472,0.813373 -0.6929,0.301259 -1.2276,0.741835 -1.6041,1.321731 -0.3766,0.579913 -0.5649,1.223832 -0.5649,1.931761 0,1.084502 0.4105,1.988249 1.2314,2.711243 0.8209,0.723001 2.0221,1.0845 3.6037,1.084497 1.5664,3e-6 2.9597,-0.342668 4.1798,-1.028013 1.22,-0.685338 2.1163,-1.622975 2.6886,-2.812915 0.4368,-0.918802 0.6552,-2.274422 0.6553,-4.066864 z" />
        <path
           inkscape:connector-curvature="0"
           id="path3309"
           style="letter-spacing:-3.23903203px;fill:#4d4d4d"
           d="m 1706.5158,-9.4803619 0,-3.0275551 c -1.5214,2.37987 -3.7581,3.5698031 -6.7104,3.5698037 -1.9129,-6e-7 -3.6714,-0.5271862 -5.2756,-1.5815587 -1.6041,-1.05437 -2.8468,-2.526724 -3.728,-4.417067 -0.8811,-1.890331 -1.3217,-4.063089 -1.3217,-6.51828 0,-2.394917 0.3992,-4.567675 1.1975,-6.51828 0.7983,-1.950568 1.9958,-3.445516 3.5924,-4.484848 1.5966,-1.039285 3.3815,-1.55894 5.3547,-1.558964 1.446,2.4e-5 2.7338,0.305039 3.8635,0.915044 1.1297,0.610053 2.0485,1.404597 2.7564,2.383635 l 0,-11.884282 4.0443,0 0,33.1223521 z M 1693.66,-21.455019 c -10e-5,3.072751 0.6476,5.369774 1.943,6.891076 1.2954,1.521313 2.8242,2.281966 4.5865,2.281963 1.7774,3e-6 3.2874,-0.72676 4.5301,-2.180291 1.2426,-1.453521 1.8639,-3.671466 1.8639,-6.653842 0,-3.283602 -0.6326,-5.693593 -1.8978,-7.229982 -1.2653,-1.53635 -2.8243,-2.304535 -4.6769,-2.304556 -1.8075,2.1e-5 -3.3175,0.738081 -4.5301,2.214182 -1.2125,1.476138 -1.8188,3.803286 -1.8187,6.98145 z" />
        <path
           inkscape:connector-curvature="0"
           id="path3311"
           style="letter-spacing:-3.23903203px;fill:#4d4d4d"
           d="m 1713.4891,-37.92582 0,-4.676894 4.0668,0 0,4.676894 z m 0,28.4454581 0,-23.9945011 4.0668,0 0,23.9945011 z" />
        <path
           inkscape:connector-curvature="0"
           id="path3313"
           style="letter-spacing:-3.23903203px;fill:#4d4d4d"
           d="m 1719.7846,-7.492117 3.9539,0.5874359 c 0.1657,1.2200556 0.6251,2.1087399 1.3782,2.6660557 1.0092,0.7531171 2.3874,1.1296782 4.1346,1.1296846 1.8828,-6.4e-6 3.3364,-0.3765675 4.3606,-1.1296846 1.0243,-0.7531276 1.7171,-1.8074988 2.0786,-3.1631169 0.2109,-0.8284366 0.3088,-2.5681491 0.2938,-5.2191427 -1.7774,2.093683 -3.9916,3.1405231 -6.6426,3.1405231 -3.2987,0 -5.8518,-1.1899331 -7.6592,-3.5698031 -1.8075,-2.379863 -2.7113,-5.234197 -2.7113,-8.56301 0,-2.289479 0.4142,-4.401987 1.2427,-6.33753 0.8284,-1.935506 2.0296,-3.430454 3.6037,-4.484848 1.574,-1.054348 3.4229,-1.581534 5.5467,-1.581558 2.8317,2.4e-5 5.1664,1.14477 7.0041,3.434241 l 0,-2.891993 3.7505,0 0,20.741009 c 0,3.7354903 -0.3803,6.3827153 -1.141,7.9416831 -0.7607,1.5589585 -1.9656,2.7903135 -3.615,3.6940687 -1.6493,0.90373836 -3.679,1.35561175 -6.089,1.35562149 -2.8618,-9.74e-6 -5.1739,-0.64392931 -6.9362,-1.93176069 -1.7623,-1.2878469 -2.6134,-3.2271369 -2.5531,-5.8178756 z m 3.3664,-14.414776 c 0,3.148064 0.6251,5.445087 1.8753,6.891077 1.2502,1.446 2.8167,2.168997 4.6995,2.168994 1.8677,3e-6 3.4342,-0.719228 4.6995,-2.157698 1.2652,-1.438458 1.8978,-3.694059 1.8979,-6.76681 -10e-5,-2.937165 -0.6515,-5.151345 -1.9544,-6.642546 -1.3029,-1.491163 -2.8732,-2.236754 -4.7108,-2.236775 -1.8075,2.1e-5 -3.3438,0.734315 -4.6091,2.202885 -1.2652,1.468607 -1.8979,3.648896 -1.8979,6.540873 z" />
        <path
           inkscape:connector-curvature="0"
           id="path3315"
           style="letter-spacing:-3.23903203px;fill:#4d4d4d"
           d="m 1743.0705,-37.92582 0,-4.676894 4.0669,0 0,4.676894 z m 0,28.4454581 0,-23.9945011 4.0669,0 0,23.9945011 z" />
        <path
           inkscape:connector-curvature="0"
           id="path3317"
           style="letter-spacing:-3.23903203px;fill:#4d4d4d"
           d="m 1758.991,-13.117946 0.5874,3.5923967 c -1.1448,0.2409992 -2.169,0.3614987 -3.0727,0.361499 -1.4762,-3e-7 -2.6209,-0.2334682 -3.4343,-0.7004044 -0.8134,-0.4669353 -1.3857,-1.0807303 -1.7171,-1.8413863 -0.3314,-0.760651 -0.4971,-2.361036 -0.4971,-4.801159 l 0,-13.804746 -2.9823,0 0,-3.163117 2.9823,0 0,-5.942141 4.0443,-2.440118 0,8.382259 4.0895,0 0,3.163117 -4.0895,0 0,14.030683 c 0,1.159815 0.072,1.905406 0.2146,2.236775 0.1431,0.331379 0.3766,0.594971 0.7004,0.79078 0.3239,0.195815 0.7871,0.293721 1.3896,0.293718 0.4518,3e-6 1.0468,-0.05272 1.7849,-0.158156 z" />
        <path
           inkscape:connector-curvature="0"
           id="path3319"
           style="letter-spacing:-3.23903203px;fill:#4d4d4d"
           d="m 1775.3632,-12.440136 c -1.5062,1.280311 -2.956,2.184058 -4.3492,2.7112435 -1.3933,0.5271858 -2.8883,0.7907786 -4.4849,0.7907792 -2.6359,-6e-7 -4.6618,-0.6439202 -6.0777,-1.9317607 -1.4159,-1.287838 -2.1238,-2.93341 -2.1238,-4.936722 0,-1.174864 0.2674,-2.248063 0.8021,-3.219601 0.5347,-0.971518 1.2351,-1.751 2.1012,-2.338447 0.8661,-0.587423 1.8414,-1.031766 2.9259,-1.333028 0.7983,-0.210861 2.0033,-0.414204 3.615,-0.610029 3.2836,-0.39161 5.7011,-0.858546 7.2525,-1.400809 0.015,-0.557296 0.023,-0.911263 0.023,-1.061904 0,-1.656853 -0.3841,-2.824192 -1.1522,-3.502022 -1.0394,-0.91879 -2.5833,-1.378194 -4.6317,-1.378215 -1.913,2.1e-5 -3.3251,0.33516 -4.2364,1.005419 -0.9113,0.670299 -1.5853,1.856467 -2.0221,3.558506 l -3.9765,-0.542248 c 0.3615,-1.702039 0.9565,-3.076488 1.7849,-4.123349 0.8284,-1.046819 2.0259,-1.85266 3.5924,-2.417525 1.5665,-0.564818 3.3815,-0.847239 5.4451,-0.847263 2.0485,2.4e-5 3.7129,0.241023 4.9932,0.722998 1.2803,0.482022 2.2217,1.088285 2.8242,1.818792 0.6025,0.730551 1.0242,1.653125 1.2653,2.767727 0.1355,0.692892 0.2033,1.943075 0.2033,3.750553 l 0,5.422486 c 0,3.780684 0.087,6.171848 0.2598,7.173497 0.1732,1.001656 0.5159,1.961887 1.028,2.8806961 l -4.2476,0 c -0.4217,-0.8434971 -0.6929,-1.8300871 -0.8134,-2.9597741 z m -0.3389,-9.082664 c -1.4761,0.60251 -3.6903,1.114633 -6.6425,1.536371 -1.6719,0.24101 -2.8543,0.512134 -3.5472,0.813373 -0.6929,0.301259 -1.2276,0.741835 -1.6042,1.321731 -0.3765,0.579913 -0.5648,1.223832 -0.5648,1.931761 0,1.084502 0.4104,1.988249 1.2313,2.711243 0.8209,0.723001 2.0222,1.0845 3.6037,1.084497 1.5665,3e-6 2.9598,-0.342668 4.1799,-1.028013 1.22,-0.685338 2.1162,-1.622975 2.6886,-2.812915 0.4368,-0.918802 0.6552,-2.274422 0.6552,-4.066864 z" />
        <path
           inkscape:connector-curvature="0"
           id="path3321"
           style="letter-spacing:-3.23903203px;fill:#4d4d4d"
           d="m 1782.1332,-9.4803619 0,-33.1223521 4.0669,0 0,33.1223521 z" />
      </g>
    </g>
  </g>
</svg>
