<?xml version="1.0" encoding="UTF-8" standalone="no"?>
<!-- Created with Inkscape (http://www.inkscape.org/) -->

<svg
   xmlns:dc="http://purl.org/dc/elements/1.1/"
   xmlns:cc="http://creativecommons.org/ns#"
   xmlns:rdf="http://www.w3.org/1999/02/22-rdf-syntax-ns#"
   xmlns:svg="http://www.w3.org/2000/svg"
   xmlns="http://www.w3.org/2000/svg"
   xmlns:sodipodi="http://sodipodi.sourceforge.net/DTD/sodipodi-0.dtd"
   xmlns:inkscape="http://www.inkscape.org/namespaces/inkscape"
   width="624.052"
   height="147.90761"
   viewBox="0 0 165.11389 39.133882"
   version="1.1"
   id="svg8"
   sodipodi:docname="etijufundotransparente.svg"
   inkscape:version="0.92.0 r15299"
   inkscape:export-filename="C:\xampp\htdocs\etiju2017\public\img\etijufundotransparente.png"
   inkscape:export-xdpi="120"
   inkscape:export-ydpi="120">
  <defs
     id="defs2" />
  <sodipodi:namedview
     id="base"
     pagecolor="#ffffff"
     bordercolor="#666666"
     borderopacity="1.0"
     inkscape:pageopacity="0"
     inkscape:pageshadow="2"
     inkscape:zoom="1.2730289"
     inkscape:cx="340.84737"
     inkscape:cy="48.459796"
     inkscape:document-units="px"
     inkscape:current-layer="text12"
     showgrid="false"
     units="px"
     inkscape:window-width="1920"
     inkscape:window-height="1017"
     inkscape:window-x="-8"
     inkscape:window-y="-8"
     inkscape:window-maximized="1"
     inkscape:pagecheckerboard="true"
     fit-margin-left="0.5"
     fit-margin-right="0.5"
     fit-margin-top="0"
     fit-margin-bottom="0"
     inkscape:showpageshadow="false" />
  <metadata
     id="metadata5">
    <rdf:RDF>
      <cc:Work
         rdf:about="">
        <dc:format>image/svg+xml</dc:format>
        <dc:type
           rdf:resource="http://purl.org/dc/dcmitype/StillImage" />
        <dc:title></dc:title>
      </cc:Work>
    </rdf:RDF>
  </metadata>
  <g
     inkscape:label="Layer 1"
     inkscape:groupmode="layer"
     id="layer1"
     transform="translate(-50.005676,-163.16046)">
    <g
       aria-label="etiju.com"
       style="font-style:normal;font-variant:normal;font-weight:normal;font-stretch:normal;font-size:42.04911804px;line-height:17.55633354px;font-family:Arial;-inkscape-font-specification:Arial;letter-spacing:0px;word-spacing:0px;fill:#2c5aa0;fill-opacity:1;stroke:none;stroke-width:0.21900581"
       id="text12"
       transform="matrix(0.94605398,0,0,0.94605398,-1.6210285,9.1951034)">
      <path
         d="m 75.043021,187.14066 3.818914,0.47223 q -0.903399,3.34669 -3.346683,5.19455 -2.443284,1.84786 -6.241666,1.84786 -4.783908,0 -7.596764,-2.93605 -2.792325,-2.95658 -2.792325,-8.27431 0,-5.50252 2.833388,-8.54123 2.833388,-3.0387 7.350383,-3.0387 4.373273,0 7.145065,2.97711 2.771793,2.97711 2.771793,8.37697 0,0.32851 -0.02053,0.98553 H 62.703412 q 0.205317,3.59306 2.032647,5.50252 1.82733,1.90945 4.558059,1.90945 2.032648,0 3.469874,-1.06765 1.437225,-1.06765 2.279029,-3.40828 z m -12.134292,-5.97475 h 12.175355 q -0.246381,-2.75126 -1.396162,-4.12689 -1.765734,-2.13531 -4.57859,-2.13531 -2.545943,0 -4.291146,1.70414 -1.72467,1.70414 -1.909457,4.55806 z"
         style="fill:#2a7fff;stroke-width:0.21900581"
         id="path4514"
         inkscape:connector-curvature="0" />
      <path
         d="m 91.591649,190.85692 0.533827,3.26455 q -1.560417,0.32851 -2.792324,0.32851 -2.012116,0 -3.120833,-0.63648 -1.108717,-0.63649 -1.560417,-1.66308 -0.451699,-1.04712 -0.451699,-4.37327 v -12.54493 h -2.710197 v -2.87445 h 2.710197 v -5.39986 l 3.675191,-2.21744 v 7.6173 h 3.716255 v 2.87445 h -3.716255 v 12.75025 q 0,1.58094 0.184786,2.03264 0.205318,0.4517 0.636486,0.71862 0.451699,0.26691 1.272971,0.26691 0.615954,0 1.622012,-0.14372 z"
         style="fill:#0b1728;stroke-width:0.21900581"
         id="path4516"
         inkscape:connector-curvature="0" />
      <path
         d="m 95.205243,168.31301 v -4.25009 h 3.695723 v 4.25009 z m 0,25.84953 v -21.80477 h 3.695723 v 21.80477 z"
         style="fill:#0b1728;stroke-width:0.21900581"
         id="path4518"
         inkscape:connector-curvature="0" />
      <path
         d="m 104.52668,168.35407 v -4.29115 h 3.69572 v 4.29115 z m -4.681247,34.26757 0.698077,-3.14137 q 1.10872,0.28745 1.74521,0.28745 1.12925,0 1.6836,-0.75968 0.55436,-0.73914 0.55436,-3.73679 v -22.91348 h 3.69572 v 22.99561 q 0,4.02423 -1.04712,5.60518 -1.33456,2.05318 -4.43486,2.05318 -1.49882,0 -2.894987,-0.3901 z"
         style="fill:#0b1728;stroke-width:0.21900581"
         id="path4520"
         inkscape:connector-curvature="0" />
      <path
         d="m 128.19984,194.16254 v -3.20296 q -2.54595,3.69572 -6.91922,3.69572 -1.92999,0 -3.61359,-0.73915 -1.66308,-0.73914 -2.48435,-1.84786 -0.80074,-1.12925 -1.12925,-2.75126 -0.22585,-1.08818 -0.22585,-3.44934 v -13.50992 h 3.69572 V 184.451 q 0,2.89498 0.22585,3.90104 0.34904,1.45776 1.47829,2.29956 1.12925,0.82127 2.79233,0.82127 1.66307,0 3.12083,-0.8418 1.45776,-0.86234 2.05318,-2.3201 0.61595,-1.47829 0.61595,-4.27061 v -11.68259 h 3.69573 v 21.80477 z"
         style="fill:#0b1728;stroke-width:0.21900581"
         id="path4522"
         inkscape:connector-curvature="0" />
      <path
         d="m 138.36308,194.16254 v -4.20902 h 4.20902 v 4.20902 z"
         style="fill:#0b1728;stroke-width:0.21900581"
         id="path4524"
         inkscape:connector-curvature="0" />
      <path
         d="m 163.20656,186.17567 3.63412,0.47223 q -0.59542,3.75732 -3.05923,5.89262 -2.44329,2.11478 -6.01582,2.11478 -4.47593,0 -7.20666,-2.91552 -2.7102,-2.93604 -2.7102,-8.3975 0,-3.53147 1.17031,-6.18007 1.17032,-2.6486 3.55201,-3.96264 2.40222,-1.33456 5.21507,-1.33456 3.552,0 5.8105,1.80679 2.2585,1.78627 2.89498,5.09189 l -3.59306,0.55436 q -0.5133,-2.1969 -1.82733,-3.30562 -1.2935,-1.10872 -3.14137,-1.10872 -2.79232,0 -4.53752,2.01212 -1.74521,1.99158 -1.74521,6.32379 0,4.39381 1.68361,6.38539 1.68361,1.99158 4.39381,1.99158 2.17637,0 3.63412,-1.33456 1.45776,-1.33457 1.84787,-4.10636 z"
         style="fill:#0b1728;stroke-width:0.21900581"
         id="path4526"
         inkscape:connector-curvature="0" />
      <path
         d="m 168.62694,183.26015 q 0,-6.05688 3.36722,-8.97239 2.81285,-2.42275 6.85762,-2.42275 4.49646,0 7.35038,2.95657 2.85392,2.93605 2.85392,8.1306 0,4.20901 -1.27297,6.63177 -1.25244,2.40222 -3.67519,3.73678 -2.40222,1.33457 -5.25614,1.33457 -4.57859,0 -7.41198,-2.93605 -2.81286,-2.93604 -2.81286,-8.4591 z m 3.79838,0 q 0,4.18849 1.82733,6.28273 1.82733,2.07371 4.59913,2.07371 2.75126,0 4.57859,-2.09424 1.82733,-2.09424 1.82733,-6.38539 0,-4.04476 -1.84786,-6.11847 -1.82733,-2.09425 -4.55806,-2.09425 -2.7718,0 -4.59913,2.07371 -1.82733,2.07372 -1.82733,6.2622 z"
         style="fill:#0b1728;stroke-width:0.21900581"
         id="path4528"
         inkscape:connector-curvature="0" />
      <path
         d="m 193.40882,194.16254 v -21.80477 h 3.30562 v 3.05924 q 1.02659,-1.60148 2.73073,-2.56648 1.70414,-0.98552 3.88051,-0.98552 2.42275,0 3.96264,1.00605 1.56041,1.00606 2.1969,2.81286 2.58701,-3.81891 6.73443,-3.81891 3.24402,0 4.98922,1.80679 1.74521,1.78627 1.74521,5.52306 v 14.96768 h -3.67519 v -13.73578 q 0,-2.21743 -0.36958,-3.18242 -0.34904,-0.98553 -1.2935,-1.58095 -0.94446,-0.59542 -2.21743,-0.59542 -2.29957,0 -3.81892,1.53988 -1.51935,1.51935 -1.51935,4.88657 v 12.66812 h -3.69572 V 179.9956 q 0,-2.46382 -0.9034,-3.69573 -0.9034,-1.2319 -2.95658,-1.2319 -1.56042,0 -2.89498,0.82127 -1.31404,0.82127 -1.90946,2.40222 -0.59542,1.58095 -0.59542,4.55806 v 11.31302 z"
         style="fill:#0b1728;stroke-width:0.21900581"
         id="path4530"
         inkscape:connector-curvature="0" />
    </g>
  </g>
</svg>
